# xmcd
#
# Track frame offsets: 
#        150
#        12172
#        25612
#        38151
#        53459
#        69845
#        85701
#        101169
#        114061
#        129350
#        142690
#        157637
#        172756
#        186218
#        217773
#
# Disc length: 3300 seconds
#
# Revision: 0
# Processed by: cddbd v1.5.2PL0 Copyright (c) Steve Scherf et al.
# Submitted via: ExactAudioCopy v0.95a5
#
DISCID=9b0ce20f
DTITLE=VANESSA PARADIS - Divinidylle
DYEAR=2007
DGENRE=Pop
TTITLE0=Divine idylle
TTITLE1=Chet Baker
TTITLE2=Les piles (en duo avec -M-)
TTITLE3=Dès que j'te vois
TTITLE4=Les revenants
TTITLE5=Junior suite
TTITLE6=L'incendie
TTITLE7=Irrésistiblement
TTITLE8=La bataille
TTITLE9=La mélodie
TTITLE10=Jackadi
TTITLE11=Emmenez-moi
TTITLE12=Abracadabra
TTITLE13=I Wouln't Dare
TTITLE14=Data
EXTD=
EXTT0=
EXTT1=
EXTT2=
EXTT3=
EXTT4=
EXTT5=
EXTT6=
EXTT7=
EXTT8=
EXTT9=
EXTT10=
EXTT11=
EXTT12=
EXTT13=
EXTT14=
PLAYORDER=
